<mxfile host="app.diagrams.net" modified="2023-12-20T20:33:24.580Z" agent="Mozilla/5.0 (Windows NT 10.0; Win64; x64; rv:121.0) Gecko/20100101 Firefox/121.0" version="22.1.11" etag="vlrOvBIij67oJQB5emo2" type="github">
  <diagram name="Page-1" id="opQ0zsGHDoBxyL4yl4RN">
    <mxGraphModel>
      <root>
        <mxCell id="0" />
        <mxCell id="1" parent="0" />
      </root>
    </mxGraphModel>
  </diagram>
</mxfile>
